<svg width="96" height="96" viewBox="0 0 96 96" fill="none" xmlns="http://www.w3.org/2000/svg">
<g id="customize 1">
<rect width="96" height="96" rx="48" fill="white"/>
<g id="Group">
<path id="Vector" d="M39.3402 23.3176L36.115 31.183L26.1719 21.2399C30.429 19.0612 35.7764 19.7537 39.3402 23.3176Z" fill="#4BB3A4"/>
<path id="Vector_2" d="M31.3281 31.3263L43.2158 47.8543L50.4647 40.6054L42.5708 32.7115C42.9815 29.3697 41.9034 25.8816 39.3381 23.3164L31.3281 31.3263Z" fill="#60D9CE"/>
<path id="Vector_3" d="M31.3272 31.3276L45.5351 45.5356L40.6056 50.4651L32.7117 42.5712C29.3706 42.9811 25.8826 41.9031 23.3174 39.3377C19.7535 35.7738 19.0614 30.4274 21.24 26.1699L28.8624 33.7924L31.3272 31.3276Z" fill="#4BB3A4"/>
<path id="Vector_4" d="M56.6641 72.6819L59.8893 64.8164L69.8324 74.7595C65.5751 76.9382 60.2279 76.2457 56.6641 72.6819Z" fill="#60D9CE"/>
<path id="Vector_5" d="M64.6718 64.6726L52.7841 48.1445L45.5352 55.3935L53.4291 63.2874C53.0184 66.6292 54.0964 70.1172 56.6618 72.6824L64.6718 64.6726Z" fill="#4BB3A4"/>
<path id="Vector_6" d="M64.6727 64.6726L50.4648 50.4647L55.3944 45.5352L63.2883 53.4291C66.6293 53.0191 70.1173 54.0972 72.6826 56.6626C76.2463 60.2263 76.9385 65.5728 74.7599 69.8302L67.1375 62.2078L64.6727 64.6726Z" fill="#60D9CE"/>
<path id="Vector_7" d="M73.2395 22.7578L74.4718 23.9901C76.505 26.0234 76.505 29.3506 74.4718 31.3839L71.4798 34.3759L63.457 29.4468L73.2395 22.7578Z" fill="#FF6126"/>
<path id="Vector_8" d="M72.0107 21.525L73.243 22.7573L65.0074 30.993L61.625 24.517L64.617 21.525C66.6503 19.4917 69.9775 19.4917 72.0107 21.525Z" fill="#FF8151"/>
<path id="Vector_9" d="M66.55 29.4473L71.4792 34.3765L66.55 39.3056L58.5273 34.3765L66.55 29.4473Z" fill="#A3FDF6"/>
<path id="Vector_10" d="M61.6244 24.5176L66.5537 29.4468L60.0777 35.9227L56.6953 29.4468L61.6244 24.5176Z" fill="#DBFFFA"/>
<path id="Vector_11" d="M24.5232 69.9297L25.6059 74.106L20.6562 75.3434L24.5232 69.9297Z" fill="#000E0F"/>
<path id="Vector_12" d="M21.8937 70.3926L23.7499 72.2486L20.6562 75.3423L21.8937 70.3926Z" fill="#116371"/>
<path id="Vector_13" d="M29.6454 64.8066L33.8008 72.0557L25.6061 74.1051L23.75 72.2489L29.6454 64.8066Z" fill="#FFA07D"/>
<path id="Vector_14" d="M23.9432 62.1973L28.8728 67.1268L23.7507 72.2489L21.8945 70.3928L23.9432 62.1973Z" fill="#FFC0A8"/>
<path id="Vector_15" d="M61.6221 34.375L66.5513 39.3042L33.8003 72.0553L28.8711 67.1261L42.9264 48.4305L61.6221 34.375Z" fill="#FFD15E"/>
<path id="Vector_16" d="M61.6204 34.3763L56.6914 29.4473L23.9407 62.198L28.8698 67.127L61.6204 34.3763Z" fill="#FFEA7C"/>
</g>
</g>
</svg>
