<svg width="96" height="96" viewBox="0 0 96 96" fill="none" xmlns="http://www.w3.org/2000/svg">
<g id="subscribe 1">
<rect width="96" height="96" rx="48" fill="white"/>
<g id="Group">
<g id="Group_2">
<path id="Vector" d="M23.9603 45.9458C21.7822 45.9458 20.2578 44.5844 20.2578 42.4064L20.3277 29.9949C20.3277 28.6549 20.6675 27.502 21.6889 26.7893C22.3278 26.3436 23.1048 26.082 23.9431 26.082H72.0566C74.2347 26.082 76.0003 27.8477 76.0003 30.0258V42.4203C76.0003 43.3146 75.7027 44.1393 75.2011 44.8009C74.481 45.7507 73.3766 46.0158 72.0928 46.0158C68.4753 46.0157 23.9603 45.9458 23.9603 45.9458Z" fill="#EE6161"/>
<path id="Vector_2" d="M75.2934 44.6753C74.5812 45.6973 73.397 46.3654 72.0573 46.3654H23.9437C21.7657 46.3654 20 44.5998 20 42.4217V30.0271C20 28.6874 20.6682 27.5031 21.6902 26.791V42.4217C21.6902 43.6634 22.7009 44.6753 23.9437 44.6753H75.2934Z" fill="#E94444"/>
<g id="Group_3">
<path id="Vector_3" d="M62.3531 54.6994C62.3531 54.6994 60.6138 54.7128 60.2987 55.5475V54.8225C60.2987 53.563 57.877 53.1787 57.877 53.1787C57.877 53.1787 55.6984 53.563 55.6984 54.8225C55.6976 54.2124 55.6967 54.0782 55.696 53.468C55.696 52.2085 53.5198 51.9177 53.5198 51.9177C53.5198 51.9177 51.4417 51.9003 51.1763 52.8693V51.9177V45.508C51.1763 44.2485 48.8762 43.5332 48.8762 43.5332C48.8762 43.5332 46.9777 44.3964 46.9777 45.6559L46.576 53.9332L45.5254 54.3328C43.9614 54.3328 42.8068 55.1713 42.8068 56.748L42.7695 59.8717C42.7695 62.3024 43.8164 64.4855 45.7637 65.9187L46.2143 66.2503C47.2258 67.0152 48.069 68.0142 48.1753 69.2757C48.1898 69.4488 48.331 69.5834 48.5046 69.5834L61.3901 69.5275C61.5729 69.5275 61.721 69.3794 61.721 69.1966C61.721 68.7163 62.2482 68.6328 62.3529 68.1697C62.5383 67.3492 62.8839 66.5689 63.3744 65.8764C64.1419 64.7928 64.5544 63.4948 64.5544 62.1635V56.3339C64.5543 55.111 62.3531 54.6994 62.3531 54.6994Z" fill="#F1D0A5"/>
<g id="Group_4">
<path id="Vector_4" d="M49.6915 68.1696C49.5118 68.1696 49.3494 68.0602 49.2853 67.8923C48.864 66.7893 48.1074 65.7881 47.0934 65.0219L46.6252 64.6762C45.1301 63.5765 44.2389 61.8056 44.2389 59.9372V56.7849C44.2389 56.1891 44.7125 55.6863 45.3082 55.6839H45.3197H46.5799L47.3037 54.9915L46.5799 53.9336H45.3197C45.0953 53.9336 44.878 53.9627 44.6686 54.0125C44.6698 54.0116 44.6708 54.0104 44.6721 54.0094C43.4135 54.2937 42.4726 55.4998 42.4885 56.7881V58.5384V59.9372C42.4885 62.3687 43.6394 64.6529 45.5866 66.0867L46.0373 66.4179C47.0495 67.1836 47.7978 68.3504 47.9042 69.6121C47.9189 69.7853 48.0601 69.9199 48.2339 69.9199H61.8662C62.05 69.9199 62.1973 69.7712 62.1973 69.5887C62.1973 69.1074 62.2513 68.6319 62.3563 68.1696H49.6915Z" fill="#F2BB88"/>
<path id="Vector_5" d="M51.1811 45.5064V46.5274C51.1811 45.93 50.9492 45.3863 50.5698 44.9797C49.9665 44.3333 48.8809 44.7686 48.8809 45.6527V59.8124C48.8809 60.4473 48.3663 60.9619 47.7315 60.9619C47.0966 60.9619 46.582 60.4473 46.582 59.8124V45.5064C46.582 44.2475 47.6118 43.2266 48.8808 43.2266C50.1513 43.2266 51.1811 44.2477 51.1811 45.5064Z" fill="#F2BB88"/>
<g id="Group_5">
<path id="Vector_6" d="M55.7008 54.4879C55.7008 53.9658 55.5239 53.4845 55.2263 53.0999C54.6617 52.3705 53.4867 52.7918 53.4867 53.7143V56.8927C53.4867 57.4117 53.066 57.8324 52.547 57.8324H52.1155C51.5961 57.8324 51.1752 57.411 51.1758 56.8917L51.1805 52.8674C51.446 51.8989 52.3386 51.1855 53.4005 51.1855C53.4297 51.1855 53.4589 51.1855 53.4866 51.187C54.7177 51.2322 55.7007 52.2357 55.7007 53.4668C55.7023 54.0765 55.7023 55.0976 55.7008 54.4879Z" fill="#F2BB88"/>
<path id="Vector_7" d="M60.3056 54.8213V55.8423C60.3056 55.245 60.0737 54.7012 59.6943 54.2947C59.0911 53.6482 58.0054 54.0835 58.0054 54.9677V56.9125C58.0054 57.4315 57.5847 57.8523 57.0657 57.8523H56.6507C56.1317 57.8523 55.7109 57.4315 55.7109 56.9125V54.6637C55.7712 53.4922 56.8363 52.519 58.0053 52.5414C59.2757 52.5415 60.3056 53.5625 60.3056 54.8213Z" fill="#F2BB88"/>
<path id="Vector_8" d="M64.5594 56.3323V57.3533C64.5594 56.5806 63.9641 55.8997 63.2379 55.504C62.7549 55.2407 62.1659 55.5984 62.1659 56.1485V56.9215C62.1659 57.4354 61.7492 57.8521 61.2353 57.8521C60.7214 57.8521 60.3047 57.4354 60.3047 56.9215V55.5461C60.6391 54.6365 61.5961 54.0095 62.6034 54.1326C63.7032 54.2537 64.5594 55.1931 64.5594 56.3323Z" fill="#F2BB88"/>
</g>
</g>
</g>
<g id="Group_6">
<path id="Vector_9" d="M62.4597 39.1328V33.3473C62.4597 32.8845 62.1032 32.481 61.6406 32.4672C61.1621 32.4528 60.7695 32.8365 60.7695 33.3119V39.0974C60.7695 39.5602 61.126 39.9637 61.5886 39.9775C62.0671 39.9918 62.4597 39.6082 62.4597 39.1328Z" fill="#F9F8F9"/>
<path id="Vector_10" d="M73.1269 34.1824C73.6023 34.1824 73.9859 33.7899 73.9716 33.3112C73.9578 32.8487 73.5543 32.4922 73.0915 32.4922H70.6966C70.2299 32.4922 69.8516 32.8706 69.8516 33.3373V39.105C69.8516 39.5717 70.2299 39.9501 70.6966 39.9501H73.0915C73.5543 39.9501 73.9578 39.5936 73.9716 39.1311C73.9861 38.6525 73.6023 38.26 73.1269 38.26H71.5417V37.0662H72.9123C73.3751 37.0662 73.7786 36.7097 73.7925 36.2472C73.8069 35.7686 73.4231 35.3761 72.9477 35.3761H71.5417V34.1824H73.1269Z" fill="#F9F8F9"/>
<path id="Vector_11" d="M37.7603 32.4668H36.1224C35.6557 32.4668 35.2773 32.8452 35.2773 33.3119V35.9923V35.9967V39.1128C35.2773 39.2306 35.2954 39.3493 35.3416 39.4577C35.4802 39.7837 35.7914 39.9779 36.1224 39.9779H36.1261C36.1261 39.9779 37.6802 39.9709 38.1085 39.9709C39.4384 39.9709 40.5204 38.889 40.5204 37.5591C40.5204 36.8384 40.2009 36.1923 39.6983 35.7499C39.9204 35.3704 40.0337 34.92 39.9875 34.4397C39.8788 33.3105 38.8946 32.4668 37.7603 32.4668ZM37.7913 34.157C38.0493 34.157 38.2801 34.3451 38.3052 34.6019C38.334 34.8966 38.1022 35.1456 37.8134 35.1456C37.7244 35.1453 37.3991 35.1472 36.9676 35.1472V34.157H37.7913ZM38.1085 38.2808C37.896 38.2808 37.4073 38.2824 36.9675 38.2841V36.8381C36.9766 36.8371 38.033 36.8372 38.1085 36.8372C38.5065 36.8372 38.8302 37.1611 38.8302 37.5589C38.8302 37.9568 38.5065 38.2808 38.1085 38.2808Z" fill="#F9F8F9"/>
<path id="Vector_12" d="M66.1314 32.4668H64.4935C64.0268 32.4668 63.6484 32.8452 63.6484 33.3119V39.1127C63.6484 39.2305 63.6665 39.3492 63.7127 39.4576C63.8513 39.7835 64.1625 39.9778 64.4935 39.9778H64.4972C64.4972 39.9778 66.0513 39.9708 66.4796 39.9708C67.8095 39.9708 68.8915 38.8889 68.8915 37.5589C68.8915 36.8383 68.572 36.1922 68.0692 35.7498C68.2913 35.3703 68.4047 34.9198 68.3585 34.4396C68.2499 33.3105 67.2657 32.4668 66.1314 32.4668ZM66.1624 34.157C66.4204 34.157 66.6512 34.3451 66.6763 34.6019C66.7051 34.8966 66.4733 35.1456 66.1845 35.1456C66.0955 35.1453 65.7702 35.1472 65.3387 35.1472V34.157H66.1624ZM66.4796 38.2808C66.2671 38.2808 65.7784 38.2824 65.3386 38.2841V36.8381C65.3477 36.8371 66.4041 36.8372 66.4796 36.8372C66.8776 36.8372 67.2013 37.1611 67.2013 37.5589C67.2013 37.9568 66.8776 38.2808 66.4796 38.2808Z" fill="#F9F8F9"/>
<path id="Vector_13" d="M50.9534 34.1904C51.4906 34.095 52.0244 34.2062 52.4643 34.4962C52.8402 34.744 53.3573 34.6796 53.6294 34.321C53.9252 33.9312 53.83 33.3789 53.4301 33.1087C52.7256 32.6327 51.8866 32.4111 51.0273 32.4787C49.1061 32.6298 47.5953 34.2538 47.5744 36.181C47.5518 38.2707 49.2451 39.9779 51.3298 39.9779C52.2259 39.9593 53.1678 39.6308 53.8107 38.8544C54.1107 38.4968 54.064 37.9638 53.7065 37.6638C53.3489 37.3637 52.8159 37.4104 52.5159 37.768C52.2767 38.0426 51.9378 38.2558 51.3298 38.2877C50.0848 38.2877 49.0935 37.1803 49.2892 35.8988C49.4203 35.0398 50.0979 34.3424 50.9534 34.1904Z" fill="#F9F8F9"/>
<path id="Vector_14" d="M24.9087 38.2874C24.3759 38.2874 23.864 38.079 23.531 37.7285C23.2195 37.4007 22.7089 37.3258 22.3551 37.6075C21.9695 37.9144 21.9284 38.4777 22.254 38.8371C22.9108 39.562 23.8784 39.9776 24.9087 39.9776C26.1924 39.9776 27.2712 39.1541 27.4738 38.0195C27.627 37.1611 27.2433 36.0419 25.7067 35.4751C25.0838 35.2454 24.4982 34.9976 24.2254 34.8796C24.1098 34.8296 24.0375 34.7096 24.0546 34.5848C24.0547 34.5841 24.0548 34.5835 24.0548 34.5828C24.0664 34.5024 24.1266 34.3053 24.4353 34.2122C25.1929 33.984 25.9069 34.5435 25.9292 34.5613C26.2865 34.8569 26.8159 34.8093 27.1147 34.4538C27.415 34.0965 27.3688 33.5634 27.0116 33.2632C26.9547 33.2154 25.5983 32.0966 23.9479 32.594C23.1001 32.8494 22.5 33.5194 22.3818 34.3427C22.2704 35.1179 22.6067 35.8639 23.2591 36.2892C23.39 36.3716 24.1413 36.6892 25.1216 37.0609C25.2991 37.1263 25.8732 37.3675 25.8098 37.7225C25.7613 37.9941 25.403 38.2874 24.9087 38.2874Z" fill="#F9F8F9"/>
<path id="Vector_15" d="M44.2447 38.2875C43.712 38.2875 43.2 38.0791 42.8669 37.7286C42.5555 37.4008 42.0448 37.3259 41.691 37.6076C41.3054 37.9145 41.2643 38.4778 41.5899 38.8372C42.2467 39.5621 43.2144 39.9778 44.2446 39.9778C45.5284 39.9778 46.607 39.1542 46.8096 38.0196C46.9629 37.1613 46.5792 36.042 45.0425 35.4752C44.4196 35.2455 43.8341 34.9977 43.5612 34.8797C43.4456 34.8297 43.3732 34.7097 43.3904 34.5849C43.3905 34.5842 43.3906 34.5836 43.3906 34.583C43.4022 34.5026 43.4624 34.3054 43.7712 34.2124C44.5278 33.9841 45.2415 34.5426 45.265 34.5613C45.6222 34.857 46.1517 34.8095 46.4505 34.4538C46.7508 34.0966 46.7046 33.5634 46.3473 33.2632C46.2904 33.2154 44.934 32.0966 43.2836 32.594C42.4358 32.8494 41.8356 33.5194 41.7175 34.3427C41.6062 35.1179 41.9424 35.8639 42.5949 36.2892C42.7257 36.3717 43.4772 36.6892 44.4574 37.0609C44.6348 37.1263 45.2088 37.3675 45.1455 37.7224C45.0974 37.9942 44.7391 38.2875 44.2447 38.2875Z" fill="#F9F8F9"/>
<path id="Vector_16" d="M31.8814 38.1581C31.7076 38.2457 31.5202 38.2889 31.3011 38.2878C31.0673 38.2875 30.8647 38.2306 30.682 38.1138C30.2465 37.8356 30.1589 37.6028 30.1589 37.3174V33.3474C30.1589 32.8847 29.8024 32.4812 29.3399 32.4673C28.8613 32.4529 28.4688 32.8367 28.4688 33.312V37.3174C28.4688 38.2386 28.9073 38.9857 29.772 39.5381C30.0947 39.743 30.6688 39.9687 31.3031 39.9779C31.7824 39.9779 32.2326 39.8734 32.6416 39.6675C33.6488 39.1603 34.2036 38.3241 34.2036 37.313V33.3473C34.2036 32.8845 33.8471 32.481 33.3846 32.4672C32.906 32.4528 32.5134 32.8365 32.5134 33.3119V37.3131C32.5136 37.5736 32.4384 37.8777 31.8814 38.1581Z" fill="#F9F8F9"/>
<path id="Vector_17" d="M59.8098 34.8238C59.8098 33.5237 58.7137 32.466 57.3663 32.466H55.8195C55.8192 32.466 55.8189 32.466 55.8186 32.466H55.8177C55.3529 32.4419 54.9727 32.803 54.9727 33.2684V39.0965C54.9727 39.5593 55.3292 39.9628 55.7917 39.9767C56.2703 39.9911 56.6628 39.6073 56.6628 39.1319V37.7955L58.3305 39.6903C58.4974 39.8802 58.7307 39.9771 58.9652 39.9771C59.1671 39.9771 59.3699 39.9051 59.5319 39.7585C59.8788 39.4447 59.8861 38.8997 59.577 38.5486L58.2373 37.0264C59.1557 36.6869 59.8098 35.828 59.8098 34.8238ZM57.3663 34.1562C57.7746 34.1562 58.1196 34.4619 58.1196 34.8238C58.1196 35.1857 57.7746 35.4915 57.3663 35.4915C57.2009 35.4915 56.9352 35.4925 56.6706 35.4938C56.669 35.2135 56.6686 34.7805 56.6671 34.1562H57.3663Z" fill="#F9F8F9"/>
</g>
</g>
</g>
</g>
</svg>
