<svg width="96" height="96" viewBox="0 0 96 96" fill="none" xmlns="http://www.w3.org/2000/svg">
<g id="surprise_5659573 1">
<rect width="96" height="96" rx="48" fill="white"/>
<g id="Group">
<g id="Group_2">
<path id="Vector" d="M66.1758 45.4707L69.2243 44.2532L75.7799 60.6686L72.7313 61.886L66.1758 45.4707Z" fill="#FF9F40"/>
</g>
<g id="Group_3">
<path id="Vector_2" d="M20.2383 60.6289L26.7938 44.2136L29.8424 45.431L23.2868 61.8464L20.2383 60.6289Z" fill="#FFBE40"/>
</g>
<g id="Group_4">
<path id="Vector_3" d="M69.3277 75.9994H26.6719V43.1873H69.3277V75.9994Z" fill="#FFDF40"/>
</g>
<path id="Vector_4" d="M47.9961 43.1875H69.324V75.9997H47.9961V43.1875Z" fill="#FFBE40"/>
<g id="Surprise_Point_3_">
<g id="Group_5">
<path id="Vector_5" d="M46.3594 66.1562H49.6406V69.4375H46.3594V66.1562Z" fill="#665252"/>
</g>
<g id="Group_6">
<path id="Vector_6" d="M72.7188 39.6875H76V42.9687H72.7188V39.6875Z" fill="#D13465"/>
</g>
<g id="Group_7">
<path id="Vector_7" d="M26.6719 23.2812H29.9531V26.5625H26.6719V23.2812Z" fill="#FF525F"/>
</g>
<g id="Group_8">
<path id="Vector_8" d="M49.6406 62.8749H46.3593V62.1924C46.3593 59.5921 47.3319 57.317 49.0285 55.9519C49.4162 55.6379 49.6406 55.1701 49.6406 54.6718C49.6406 53.7666 48.9051 53.0312 47.9999 53.0312C47.0948 53.0312 46.3593 53.7666 46.3593 54.6718H43.0781C43.0781 51.9578 45.2859 49.75 47.9999 49.75C50.714 49.75 52.9218 51.9578 52.9218 54.6718C52.9218 56.1683 52.2537 57.5653 51.0874 58.5058C50.1676 59.2459 49.6406 60.5902 49.6406 62.1924V62.8749Z" fill="#665252"/>
</g>
<path id="Vector_9" d="M49.6406 54.6718C49.6406 55.1701 49.4163 55.6379 49.0286 55.9519C48.6434 56.2618 48.3076 56.6313 48 57.028V62.8749H49.6406V62.1924C49.6406 60.5903 50.1677 59.2461 51.0874 58.5058C52.2538 57.5653 52.9218 56.1683 52.9218 54.6718C52.9218 51.9578 50.714 49.75 48 49.75V53.0312C48.9052 53.0312 49.6406 53.7666 49.6406 54.6718Z" fill="#4D3636"/>
<g id="Group_9">
<path id="Vector_10" d="M38.1562 29.8436C35.4422 29.8436 33.2344 27.6358 33.2344 24.9218C33.2344 22.2078 35.4422 20 38.1562 20C40.8702 20 43.078 22.2078 43.078 24.9218C43.078 27.6358 40.8702 29.8436 38.1562 29.8436Z" fill="#E1E6F0"/>
</g>
<g id="Group_10">
<path id="Vector_11" d="M62.7655 23.2812H59.4843V20H56.2031V23.2812H52.9219V26.5624H56.2031V29.8436H59.4843V26.5624H62.7655V23.2812Z" fill="#FFBE40"/>
<path id="Vector_12" d="M26.5624 29.8436H23.2812V33.1248H20V36.4061H23.2812V39.6873H26.5624V36.4061H29.8436V33.1248H26.5624V29.8436Z" fill="#FFDF40"/>
</g>
<g id="Group_11">
<g id="Group_12">
<g id="Group_13">
<path id="Vector_13" d="M46.3555 26.5625H49.6367V36.4061H46.3555V26.5625Z" fill="#E1E6F0"/>
</g>
</g>
</g>
<g id="Group_14">
<path id="Vector_14" d="M34.2734 33.9609L37.1154 32.3201L40.3965 38.0028L37.5545 39.6437L34.2734 33.9609Z" fill="#E1E6F0"/>
</g>
<path id="Vector_15" d="M72.6083 29.8438H64.4052C62.8402 29.8438 61.4446 30.5787 60.5425 31.7208L60.5393 31.7183L55.7344 37.8081L58.3107 39.8396L60.2441 37.3892C61.1169 38.7688 62.6552 39.6874 64.4052 39.6874C67.1192 39.6874 69.327 37.4796 69.327 34.7656C69.327 34.1904 69.227 33.6385 69.0449 33.125H72.6083V29.8438Z" fill="#C3D0E6"/>
</g>
<g id="Group_15">
<path id="Vector_16" d="M48 66.1562H49.6406V69.4375H48V66.1562Z" fill="#4D3636"/>
<path id="Vector_17" d="M48 26.5625H49.6406V36.4061H48V26.5625Z" fill="#C3D0E6"/>
</g>
</g>
</g>
</svg>
